<?xml version="1.0" encoding="utf-8"?>
<!-- Generator: Adobe Illustrator 25.4.1, SVG Export Plug-In . SVG Version: 6.00 Build 0)  -->
<svg version="1.1" id="Layer_1" xmlns="http://www.w3.org/2000/svg" xmlns:xlink="http://www.w3.org/1999/xlink" x="0px" y="0px"
	 viewBox="0 0 45 45" style="enable-background:new 0 0 45 45;" xml:space="preserve">
<style type="text/css">
	.st0{fill:#F8B796;}
	.st1{fill:url(#SVGID_1_);}
	.st2{fill:#EB865C;}
	.st3{fill:#132941;}
	.st4{fill:url(#SVGID_00000152958969667060793430000015050074318973959317_);}
	.st5{fill:url(#SVGID_00000049186859462222876200000002548863389066937273_);}
	.st6{fill:url(#SVGID_00000120541744420217639070000013025453743084833453_);}
	.st7{fill:url(#SVGID_00000105401592236893540610000009040112267197043843_);}
</style>
<g>
	<path class="st0" d="M41.2,25.4c-0.7-0.5-1.3-0.6-1.9-0.5c-0.2,0-0.4,0.1-0.6,0.1c-0.2,0-0.5-0.1-0.7-0.2c-0.6-0.2-1.2-0.4-1.7-0.7
		c-0.2-0.2-0.4-0.4-0.6-0.6c-0.2-0.2-0.5-0.4-0.7-0.6c-0.4-0.4-0.6-1-0.6-1.5c0-1,0.5-1.8,1-2.6c0.1-0.1,0.1-0.2,0.2-0.3
		c0.7-1.2-0.4-3.7-2-4.4c-1.6-0.7-4,1-8.6,1.4c-4.6,0.4-7.9,0.1-10.6-0.8c-1.6-0.5-4-1.1-5.2,0.5c-1.1,1.6,0.5,3.5,0.6,5.2
		c0,0.9-0.3,1.7-0.8,2.4c-0.3,0.4-0.7,0.7-1,1.1c-0.2,0.2-0.3,0.4-0.4,0.6C7.5,24.7,7.2,24.9,7,25c-0.1,0.1-0.2,0.2-0.3,0.2
		c-0.1,0-0.2,0.1-0.3,0.1c-0.2,0-0.3,0.1-0.5,0.1c-0.3,0-0.5-0.2-0.7-0.3c-1.2-0.7-2.5-0.2-2.9,1.1c-0.4,1.3,0.4,3.1,1.1,4.2
		c1,1.7,2.8,2.5,4.8,2c0,0,1.4,3.6,4.4,6.6c2.2,2.2,5.2,4,9.1,4h0.1c3.9,0,6.9-1.8,9.1-4c3.1-3,4.4-6.7,4.4-6.7l0,0
		C39.3,34.9,43,26.9,41.2,25.4z M38.2,30c-0.1,0.2-0.2,0.4-0.4,0.5C38,30.4,38.1,30.3,38.2,30c0-0.1,0-0.1,0-0.2
		C38.3,29.9,38.2,30,38.2,30z"/>
	
		<radialGradient id="SVGID_1_" cx="154.1377" cy="-9506.8701" r="98.1004" gradientTransform="matrix(0.2615 0 0 0.2443 -21.0015 2337.7668)" gradientUnits="userSpaceOnUse">
		<stop  offset="0" style="stop-color:#3E348B"/>
		<stop  offset="1" style="stop-color:#132941"/>
	</radialGradient>
	<path class="st1" d="M40.5,11.2l2.9,1.4c0,0-0.4-2.3-3.1-4.8c-2.8-2.4-5.1-0.6-5.1-0.6S36,4,30.7,2.6c-5.3-1.4-13.6,2.5-17,4
		C10.2,8,6.3,5.7,6.3,5.7s0,2,1,3.5c0,0-2.9,0.6-4.5,0.5l2.6,2l-3.4,1.2c0,0,2.6,4.5,3.1,11.7c0,0.1,0,0.2,0,0.3
		c1.4,0.9,1.4,3.7,1.6,4.6c0.2,1,0.6,1.5,1.3,1.2c0.2-0.1,0.2-0.6,0.2-0.8c0-0.5-0.1-1-0.2-1.5c-0.2-1.2-0.7-2.4-0.6-3.7
		c0-0.4,0.2-0.8,0.4-1.1c0.2-0.3,0.6-0.6,0.8-0.9c0.5-0.7,0.9-1.6,0.8-2.5C9.7,18.4,8,16.6,9.1,15c1.1-1.6,3.6-1,5.2-0.5
		c2.7,0.9,6,1.2,10.6,0.8c4.7-0.4,7.1-2.1,8.6-1.4c1.6,0.7,2.7,3.1,2,4.4c-0.5,0.8-1,1.5-1.1,2.4c-0.1,0.5,0,1,0.2,1.5
		c0.1,0.2,0.3,0.5,0.5,0.7c0.2,0.2,0.4,0.3,0.6,0.6c0.2,0.3,0.2,0.6,0.2,0.9c0,0.4,0,0.8-0.1,1.1c-0.2,1-0.4,2-0.6,3
		c-0.1,0.5-0.1,0.9-0.1,1.4c0,0.2,0,0.6,0.2,0.7c0.5,0.2,0.8,0.1,1-0.4c0.1-0.2,0.2-0.5,0.3-0.8c0.1-0.3,0.1-0.9,0.2-1.5
		c0.1-0.8,0.3-1.7,0.7-2.3l0,0c0,0,0.7-0.8,1.8-1l0-0.1c0,0,0.8-4.4,1.3-7c0.5-2.5-1-3.3-1-3.3l2,0.1L40.5,11.2z"/>
	<g>
		<path class="st2" d="M23.9,39.3c0,0.7-4,0.7-4,0c-0.1,0-0.1-0.2,0-0.2c1.3-0.2,2.7-0.2,4,0C24,39.1,24,39.3,23.9,39.3z"/>
		<path class="st2" d="M24.1,34.5c-0.6,0.3-1.4,0.7-2.1,0.7c-0.7,0-1.5-0.4-2.1-0.7c-0.1,0,0-0.2,0.1-0.2c0.7,0.1,1.4,0.2,2.1,0.2
			c0.7,0,1.3-0.1,2-0.2C24,34.3,24.1,34.5,24.1,34.5z"/>
		<path class="st2" d="M19.3,37.7c-0.9-0.1-1.7-0.3-2.5-0.5c-0.1,0,0-0.3,0.1-0.2c0.8,0.1,1.7,0.2,2.5,0.2c0.8,0,1.7,0.1,2.5,0.1
			c0.4,0,0.8,0,1.2,0c0.4,0,0.8,0,1.2-0.1l0.6,0l0.6-0.1l0.3,0l0.3,0c0.2,0,0.4,0,0.6-0.1c0.1,0,0.3,0.2,0.1,0.2l-0.6,0.2
			c-0.1,0-0.2,0.1-0.3,0.1l-0.3,0.1l-0.6,0.1c-0.2,0-0.4,0.1-0.6,0.1c-0.4,0.1-0.9,0.1-1.3,0.1c-0.4,0-0.9,0-1.3,0
			C21,37.9,20.2,37.8,19.3,37.7z"/>
		<g>
			<path class="st2" d="M40.2,26.8C40.2,26.8,40.1,26.8,40.2,26.8c-0.9,0.1-1.9,0.9-2.1,1.7c0,0.2-0.1,0.4,0,0.5
				c0.1,0.2,0.2,0.3,0.3,0.5c0.1,0.2,0.1,0.5,0,0.7c-0.1,0.2-0.3,0.3-0.6,0.4c-0.1,0-0.2,0-0.3,0c-0.1,0-0.2,0-0.2,0.1
				C37,31,37.8,31.1,38,31.1c0.3,0,0.6-0.1,0.8-0.2c0.2-0.2,0.3-0.4,0.4-0.7c0.1-0.5-0.2-1-0.2-1.6c0-0.6,0.3-1.1,0.7-1.5
				c0.1-0.1,0.2-0.2,0.3-0.2C40.2,26.9,40.2,26.9,40.2,26.8z"/>
			<path class="st2" d="M3.7,26.8C3.7,26.8,3.7,26.8,3.7,26.8c0.9,0.1,1.9,0.9,2.1,1.7c0,0.2,0.1,0.4,0,0.5
				c-0.1,0.2-0.2,0.3-0.3,0.5c-0.1,0.2-0.1,0.5,0,0.7c0.1,0.2,0.3,0.3,0.6,0.4c0.1,0,0.2,0,0.3,0c0.1,0,0.2,0,0.2,0.1
				C6.9,31,6,31.1,5.8,31.1c-0.3,0-0.6-0.1-0.8-0.2c-0.2-0.2-0.3-0.4-0.4-0.7c-0.1-0.5,0.2-1,0.2-1.6c0-0.6-0.3-1.1-0.7-1.5
				C3.9,27.1,3.8,27,3.7,27C3.7,26.9,3.6,26.9,3.7,26.8z"/>
		</g>
	</g>
	<g>
		<path class="st2" d="M34.3,25.4l1.6-0.3c0-0.2,0.1-0.4,0.1-0.6c0-0.2,0.1-0.4,0.1-0.6l-2.6,0.4c-1.1-1.1-2.6-1.7-4.3-1.7
			c-2.2,0-4,1.1-5,2.7c-1.9-0.8-4,0-4,0l-0.1,0c-1-1.6-2.9-2.7-5.1-2.7c-1.7,0-3.2,0.6-4.2,1.7c0,0,0,0,0,0l-2.9-0.5
			c0,0.4,0,0.8,0.1,1.3l2,0.3c0,0-0.1,0.1-0.1,0.1c-0.4,0.8-0.7,1.6-0.7,2.5c0,3,2.6,5.5,5.8,5.5s5.8-2.4,5.8-5.5
			c0-0.5-0.1-1-0.2-1.4l0.1,0c0,0,1.2-0.7,2.8,0l0,0c-0.1,0.5-0.2,1-0.2,1.5c0,3,2.6,5.5,5.8,5.5S35,31.1,35,28
			c0-0.9-0.2-1.7-0.6-2.5C34.4,25.5,34.3,25.4,34.3,25.4z"/>
	</g>
	<g>
		<path class="st3" d="M23.8,25.4c1.1-1.7,3-2.8,5.3-2.8c1.8,0,3.3,0.7,4.4,1.8c0.4,0.4,0.7,0.8,0.9,1.3c0.4,0.8,0.6,1.6,0.5,2.5
			c-0.2,3-2.9,5.3-6.1,5.3s-5.8-2.4-5.8-5.3c0-0.5,0.1-1,0.2-1.5C23.3,26.2,23.5,25.8,23.8,25.4z M33.5,28.2
			c0.1-2.3-1.9-4.2-4.4-4.2s-4.7,1.9-4.7,4.2c0,2.3,2,4.1,4.4,4.1C31.3,32.3,33.4,30.4,33.5,28.2z"/>
		<g>
			
				<radialGradient id="SVGID_00000010993259863981011150000013951348623942364581_" cx="199.5221" cy="-9448.1992" r="17.1972" gradientTransform="matrix(0.2615 0 0 0.2443 -21.0015 2337.7668)" gradientUnits="userSpaceOnUse">
				<stop  offset="0" style="stop-color:#6776B8"/>
				<stop  offset="1" style="stop-color:#326DB4"/>
			</radialGradient>
			<path style="fill:url(#SVGID_00000010993259863981011150000013951348623942364581_);" d="M29,23.9c2.6,0,4.5,1.9,4.4,4.2
				c-0.1,2.3-2.2,4.1-4.7,4.1c-2.5,0-4.5-1.8-4.4-4.1C24.4,25.8,26.5,23.9,29,23.9z"/>
		</g>
		<path class="st3" d="M23.8,25.4c-0.3,0.4-0.5,0.8-0.6,1.3l0,0c-1.6-0.7-2.8,0-2.8,0l-0.1,0c-0.1-0.5-0.3-0.9-0.6-1.3l0.1,0
			C19.6,25.4,21.8,24.6,23.8,25.4z"/>
		<path class="st3" d="M9.9,24.3c1.1-1.1,2.6-1.7,4.3-1.7c2.3,0,4.3,1.1,5.3,2.8c0.3,0.4,0.5,0.8,0.6,1.3c0.1,0.5,0.2,0.9,0.2,1.4
			c0,3-2.6,5.3-5.8,5.3s-6-2.4-6.1-5.3c0-0.9,0.2-1.8,0.5-2.5C9.2,25.1,9.5,24.7,9.9,24.3z M19,28.2c0-2.3-2.1-4.2-4.7-4.2
			c-2.6,0-4.5,1.9-4.4,4.2c0.1,2.3,2.2,4.1,4.7,4.1S19,30.4,19,28.2z"/>
		<g>
			
				<radialGradient id="SVGID_00000149362938300185428020000008343041535860434336_" cx="142.466" cy="-9445.7568" r="17.2717" gradientTransform="matrix(0.2615 0 0 0.2443 -21.0015 2337.7668)" gradientUnits="userSpaceOnUse">
				<stop  offset="0" style="stop-color:#6776B8"/>
				<stop  offset="1" style="stop-color:#326DB4"/>
			</radialGradient>
			<path style="fill:url(#SVGID_00000149362938300185428020000008343041535860434336_);" d="M14.3,23.9c2.6,0,4.7,1.9,4.7,4.2
				c0,2.3-2,4.1-4.4,4.1s-4.6-1.8-4.7-4.1C9.8,25.8,11.7,23.9,14.3,23.9z"/>
		</g>
		<g>
			<path class="st3" d="M33.2,25.6l5-0.8c0.4-0.1,0.6-0.4,0.6-0.7c0-0.3-0.4-0.6-0.8-0.5L33,24.4c-0.4,0.1-0.6,0.4-0.6,0.7
				C32.5,25.5,32.8,25.7,33.2,25.6"/>
			<path class="st3" d="M10.3,24.4l-5.1-0.8c-0.4-0.1-0.7,0.2-0.8,0.5c0,0.3,0.2,0.7,0.6,0.7l5,0.8c0.4,0.1,0.7-0.2,0.8-0.5
				C10.9,24.8,10.7,24.5,10.3,24.4"/>
		</g>
		
			<linearGradient id="SVGID_00000044142868813381882600000015216873270258186391_" gradientUnits="userSpaceOnUse" x1="27.4907" y1="30.5751" x2="27.4907" y2="23.6734">
			<stop  offset="0" style="stop-color:#020203"/>
			<stop  offset="1" style="stop-color:#76777A"/>
		</linearGradient>
		<path style="fill:url(#SVGID_00000044142868813381882600000015216873270258186391_);" d="M29,24.4c-2.3,0-4.1,1.7-4.1,3.7
			c0,1,0.4,1.9,1.2,2.6l4.1-6.2C29.8,24.5,29.4,24.4,29,24.4z"/>
		
			<linearGradient id="SVGID_00000124131429204027167540000015585959615365117320_" gradientUnits="userSpaceOnUse" x1="12.6752" y1="30.5826" x2="12.6752" y2="23.6725">
			<stop  offset="0" style="stop-color:#020203"/>
			<stop  offset="1" style="stop-color:#76777A"/>
		</linearGradient>
		<path style="fill:url(#SVGID_00000124131429204027167540000015585959615365117320_);" d="M14.3,24.4c-2.3,0-4,1.7-3.9,3.7
			c0,0.9,0.4,1.7,1,2.3l3.6-6C14.7,24.4,14.5,24.4,14.3,24.4z"/>
	</g>
</g>
</svg>
