<?xml version="1.0" encoding="utf-8"?>
<!-- Generator: Adobe Illustrator 25.4.1, SVG Export Plug-In . SVG Version: 6.00 Build 0)  -->
<svg version="1.1" id="Layer_1" xmlns="http://www.w3.org/2000/svg" xmlns:xlink="http://www.w3.org/1999/xlink" x="0px" y="0px"
	 viewBox="0 0 150 60" style="enable-background:new 0 0 150 60;" xml:space="preserve">
<style type="text/css">
	.st0{fill:#F8B796;}
	.st1{fill:url(#SVGID_1_);}
	.st2{fill:#EB865C;}
	.st3{fill:#132941;}
	.st4{fill:url(#SVGID_00000171690104775124104320000013460685646713044157_);}
	.st5{fill:url(#SVGID_00000163070567115803589750000017545661017751321991_);}
	.st6{fill:url(#SVGID_00000181082804386889013280000013824119207245024917_);}
	.st7{fill:url(#SVGID_00000111914085902440931820000015237546804046377618_);}
	.st8{fill:#312783;}
</style>
<g>
	<path class="st0" d="M47.6,32.6c-0.7-0.5-1.3-0.6-1.9-0.5c-0.2,0-0.4,0.1-0.6,0.1c-0.2,0-0.5-0.1-0.7-0.2c-0.6-0.2-1.2-0.4-1.7-0.7
		c-0.2-0.2-0.4-0.4-0.6-0.6c-0.2-0.2-0.5-0.4-0.7-0.6c-0.4-0.4-0.6-1-0.6-1.5c0-1,0.5-1.8,1-2.6c0.1-0.1,0.1-0.2,0.2-0.3
		c0.7-1.2-0.4-3.7-2-4.4c-1.6-0.7-4,1-8.6,1.4c-4.6,0.4-7.9,0.1-10.6-0.8c-1.6-0.5-4-1.1-5.2,0.5c-1.1,1.6,0.5,3.5,0.6,5.2
		c0,0.9-0.3,1.7-0.8,2.4c-0.3,0.4-0.7,0.7-1,1.1c-0.2,0.2-0.3,0.4-0.4,0.6c-0.2,0.2-0.4,0.4-0.6,0.6c-0.1,0.1-0.2,0.2-0.3,0.2
		c-0.1,0-0.2,0.1-0.3,0.1c-0.2,0-0.3,0.1-0.5,0.1c-0.3,0-0.5-0.2-0.7-0.3c-1.2-0.7-2.5-0.2-2.9,1.1c-0.4,1.3,0.4,3.1,1.1,4.2
		c1,1.7,2.8,2.5,4.8,2c0,0,1.4,3.6,4.4,6.6c2.2,2.2,5.2,4,9.1,4h0.1c3.9,0,6.9-1.8,9.1-4c3.1-3,4.4-6.7,4.4-6.7l0,0
		C45.8,42.2,49.4,34.1,47.6,32.6z M44.7,37.3c-0.1,0.2-0.2,0.4-0.4,0.5C44.4,37.6,44.6,37.5,44.7,37.3c0-0.1,0-0.1,0-0.2
		C44.7,37.2,44.7,37.2,44.7,37.3z"/>
	
		<radialGradient id="SVGID_1_" cx="29.0916" cy="-9501.9746" r="98.1004" gradientTransform="matrix(0.2615 0 0 0.2443 18.1385 2343.8123)" gradientUnits="userSpaceOnUse">
		<stop  offset="0" style="stop-color:#3E348B"/>
		<stop  offset="1" style="stop-color:#132941"/>
	</radialGradient>
	<path class="st1" d="M46.9,18.5l2.9,1.4c0,0-0.4-2.3-3.1-4.8c-2.8-2.4-5.1-0.6-5.1-0.6s0.8-3.2-4.5-4.6c-5.3-1.4-13.6,2.5-17,4
		c-3.4,1.4-7.3-0.9-7.3-0.9s0,2,1,3.5c0,0-2.9,0.6-4.5,0.5l2.6,2l-3.4,1.2c0,0,2.6,4.5,3.1,11.7c0,0.1,0,0.2,0,0.3
		c1.4,0.9,1.4,3.7,1.6,4.6c0.2,1,0.6,1.5,1.3,1.2c0.2-0.1,0.2-0.6,0.2-0.8c0-0.5-0.1-1-0.2-1.5c-0.2-1.2-0.7-2.4-0.6-3.7
		c0-0.4,0.2-0.8,0.4-1.1c0.2-0.3,0.6-0.6,0.8-0.9c0.5-0.7,0.9-1.6,0.8-2.5c-0.1-1.7-1.8-3.5-0.6-5.2c1.1-1.6,3.6-1,5.2-0.5
		c2.7,0.9,6,1.2,10.6,0.8c4.7-0.4,7.1-2.1,8.6-1.4c1.6,0.7,2.7,3.1,2,4.4c-0.5,0.8-1,1.5-1.1,2.4c-0.1,0.5,0,1,0.2,1.5
		c0.1,0.2,0.3,0.5,0.5,0.7c0.2,0.2,0.4,0.3,0.6,0.6c0.2,0.3,0.2,0.6,0.2,0.9c0,0.4,0,0.8-0.1,1.1c-0.2,1-0.4,2-0.6,3
		c-0.1,0.5-0.1,0.9-0.1,1.4c0,0.2,0,0.6,0.2,0.7c0.5,0.2,0.8,0.1,1-0.4c0.1-0.2,0.2-0.5,0.3-0.8c0.1-0.3,0.1-0.9,0.2-1.5
		c0.1-0.8,0.3-1.7,0.7-2.3l0,0c0,0,0.7-0.8,1.8-1l0-0.1c0,0,0.8-4.4,1.3-7c0.5-2.5-1-3.3-1-3.3l2,0.1L46.9,18.5z"/>
	<g>
		<path class="st2" d="M30.4,46.6c0,0.7-4,0.7-4,0c-0.1,0-0.1-0.2,0-0.2c1.3-0.2,2.7-0.2,4,0C30.4,46.4,30.4,46.6,30.4,46.6z"/>
		<path class="st2" d="M30.5,41.7c-0.6,0.3-1.4,0.7-2.1,0.7c-0.7,0-1.5-0.4-2.1-0.7c-0.1,0,0-0.2,0.1-0.2c0.7,0.1,1.4,0.2,2.1,0.2
			c0.7,0,1.3-0.1,2-0.2C30.5,41.5,30.6,41.7,30.5,41.7z"/>
		<path class="st2" d="M25.7,44.9c-0.9-0.1-1.7-0.3-2.5-0.5c-0.1,0,0-0.3,0.1-0.2c0.8,0.1,1.7,0.2,2.5,0.2c0.8,0,1.7,0.1,2.5,0.1
			c0.4,0,0.8,0,1.2,0c0.4,0,0.8,0,1.2-0.1l0.6,0l0.6-0.1l0.3,0l0.3,0c0.2,0,0.4,0,0.6-0.1c0.1,0,0.3,0.2,0.1,0.2l-0.6,0.2
			c-0.1,0-0.2,0.1-0.3,0.1l-0.3,0.1l-0.6,0.1c-0.2,0-0.4,0.1-0.6,0.1c-0.4,0.1-0.9,0.1-1.3,0.1c-0.4,0-0.9,0-1.3,0
			C27.5,45.1,26.6,45.1,25.7,44.9z"/>
		<g>
			<path class="st2" d="M46.6,34.1C46.6,34.1,46.6,34.1,46.6,34.1c-0.9,0.1-1.9,0.9-2.1,1.7c0,0.2-0.1,0.4,0,0.5
				c0.1,0.2,0.2,0.3,0.3,0.5c0.1,0.2,0.1,0.5,0,0.7c-0.1,0.2-0.3,0.3-0.6,0.4c-0.1,0-0.2,0-0.3,0c-0.1,0-0.2,0-0.2,0.1
				c-0.3,0.3,0.6,0.5,0.8,0.5c0.3,0,0.6-0.1,0.8-0.2c0.2-0.2,0.3-0.4,0.4-0.7c0.1-0.5-0.2-1-0.2-1.6c0-0.6,0.3-1.1,0.7-1.5
				c0.1-0.1,0.2-0.2,0.3-0.2C46.6,34.2,46.7,34.1,46.6,34.1z"/>
			<path class="st2" d="M10.1,34.1C10.1,34.1,10.2,34.1,10.1,34.1c0.9,0.1,1.9,0.9,2.1,1.7c0,0.2,0.1,0.4,0,0.5
				c-0.1,0.2-0.2,0.3-0.3,0.5c-0.1,0.2-0.1,0.5,0,0.7c0.1,0.2,0.3,0.3,0.6,0.4c0.1,0,0.2,0,0.3,0c0.1,0,0.2,0,0.2,0.1
				c0.3,0.3-0.6,0.5-0.8,0.5c-0.3,0-0.6-0.1-0.8-0.2c-0.2-0.2-0.3-0.4-0.4-0.7c-0.1-0.5,0.2-1,0.2-1.6c0-0.6-0.3-1.1-0.7-1.5
				c-0.1-0.1-0.2-0.2-0.3-0.2C10.1,34.2,10.1,34.1,10.1,34.1z"/>
		</g>
	</g>
	<g>
		<path class="st2" d="M40.7,32.6l1.6-0.3c0-0.2,0.1-0.4,0.1-0.6c0-0.2,0.1-0.4,0.1-0.6l-2.6,0.4c-1.1-1.1-2.6-1.7-4.3-1.7
			c-2.2,0-4,1.1-5,2.7c-1.9-0.8-4,0-4,0l-0.1,0c-1-1.6-2.9-2.7-5.1-2.7c-1.7,0-3.2,0.6-4.2,1.7c0,0,0,0,0,0l-2.9-0.5
			c0,0.4,0,0.8,0.1,1.3l2,0.3c0,0-0.1,0.1-0.1,0.1c-0.4,0.8-0.7,1.6-0.7,2.5c0,3,2.6,5.5,5.8,5.5s5.8-2.4,5.8-5.5
			c0-0.5-0.1-1-0.2-1.4l0.1,0c0,0,1.2-0.7,2.8,0l0,0c-0.1,0.5-0.2,1-0.2,1.5c0,3,2.6,5.5,5.8,5.5s5.8-2.4,5.8-5.5
			c0-0.9-0.2-1.7-0.6-2.5C40.8,32.7,40.8,32.7,40.7,32.6z"/>
	</g>
	<g>
		<path class="st3" d="M30.2,32.6c1.1-1.7,3-2.8,5.3-2.8c1.8,0,3.3,0.7,4.4,1.8c0.4,0.4,0.7,0.8,0.9,1.3c0.4,0.8,0.6,1.6,0.5,2.5
			c-0.2,3-2.9,5.3-6.1,5.3s-5.8-2.4-5.8-5.3c0-0.5,0.1-1,0.2-1.5C29.7,33.5,29.9,33,30.2,32.6z M39.9,35.4c0.1-2.3-1.9-4.2-4.4-4.2
			c-2.6,0-4.7,1.9-4.7,4.2c0,2.3,2,4.1,4.4,4.1C37.7,39.5,39.8,37.7,39.9,35.4z"/>
		<g>
			
				<radialGradient id="SVGID_00000083080365744842564650000017049183508078467467_" cx="74.4761" cy="-9443.3047" r="17.1972" gradientTransform="matrix(0.2615 0 0 0.2443 18.1385 2343.8123)" gradientUnits="userSpaceOnUse">
				<stop  offset="0" style="stop-color:#6776B8"/>
				<stop  offset="1" style="stop-color:#326DB4"/>
			</radialGradient>
			<path style="fill:url(#SVGID_00000083080365744842564650000017049183508078467467_);" d="M35.5,31.2c2.6,0,4.5,1.9,4.4,4.2
				c-0.1,2.3-2.2,4.1-4.7,4.1c-2.5,0-4.5-1.8-4.4-4.1C30.8,33.1,32.9,31.2,35.5,31.2z"/>
		</g>
		<path class="st3" d="M30.2,32.6c-0.3,0.4-0.5,0.8-0.6,1.3l0,0c-1.6-0.7-2.8,0-2.8,0l-0.1,0c-0.1-0.5-0.3-0.9-0.6-1.3l0.1,0
			C26.1,32.6,28.3,31.8,30.2,32.6z"/>
		<path class="st3" d="M16.4,31.6c1.1-1.1,2.6-1.7,4.3-1.7c2.3,0,4.3,1.1,5.3,2.8c0.3,0.4,0.5,0.8,0.6,1.3c0.1,0.5,0.2,0.9,0.2,1.4
			c0,3-2.6,5.3-5.8,5.3s-6-2.4-6.1-5.3c0-0.9,0.2-1.8,0.5-2.5C15.7,32.4,16,31.9,16.4,31.6z M25.4,35.4c0-2.3-2.1-4.2-4.7-4.2
			c-2.6,0-4.5,1.9-4.4,4.2c0.1,2.3,2.2,4.1,4.7,4.1S25.4,37.7,25.4,35.4z"/>
		<g>
			
				<radialGradient id="SVGID_00000010282839486174925230000001095853264994399894_" cx="17.4199" cy="-9440.8613" r="17.2717" gradientTransform="matrix(0.2615 0 0 0.2443 18.1385 2343.8123)" gradientUnits="userSpaceOnUse">
				<stop  offset="0" style="stop-color:#6776B8"/>
				<stop  offset="1" style="stop-color:#326DB4"/>
			</radialGradient>
			<path style="fill:url(#SVGID_00000010282839486174925230000001095853264994399894_);" d="M20.7,31.2c2.6,0,4.7,1.9,4.7,4.2
				c0,2.3-2,4.1-4.4,4.1s-4.6-1.8-4.7-4.1C16.2,33.1,18.2,31.2,20.7,31.2z"/>
		</g>
		<g>
			<path class="st3" d="M39.7,32.9l5-0.8c0.4-0.1,0.6-0.4,0.6-0.7c0-0.3-0.4-0.6-0.8-0.5l-5.1,0.8c-0.4,0.1-0.6,0.4-0.6,0.7
				C38.9,32.7,39.3,32.9,39.7,32.9"/>
			<path class="st3" d="M16.7,31.7l-5.1-0.8c-0.4-0.1-0.7,0.2-0.8,0.5c0,0.3,0.2,0.7,0.6,0.7l5,0.8c0.4,0.1,0.7-0.2,0.8-0.5
				C17.4,32,17.1,31.7,16.7,31.7"/>
		</g>
		
			<linearGradient id="SVGID_00000062175610999820826860000006389160951032555403_" gradientUnits="userSpaceOnUse" x1="33.93" y1="37.8165" x2="33.93" y2="30.9147">
			<stop  offset="0" style="stop-color:#020203"/>
			<stop  offset="1" style="stop-color:#76777A"/>
		</linearGradient>
		<path style="fill:url(#SVGID_00000062175610999820826860000006389160951032555403_);" d="M35.4,31.7c-2.3,0-4.1,1.7-4.1,3.7
			c0,1,0.4,1.9,1.2,2.6l4.1-6.2C36.2,31.7,35.8,31.7,35.4,31.7z"/>
		
			<linearGradient id="SVGID_00000088824285191050024310000017286431728182207397_" gradientUnits="userSpaceOnUse" x1="19.1145" y1="37.824" x2="19.1145" y2="30.9138">
			<stop  offset="0" style="stop-color:#020203"/>
			<stop  offset="1" style="stop-color:#76777A"/>
		</linearGradient>
		<path style="fill:url(#SVGID_00000088824285191050024310000017286431728182207397_);" d="M20.8,31.7c-2.3,0-4,1.7-3.9,3.7
			c0,0.9,0.4,1.7,1,2.3l3.6-6C21.2,31.7,21,31.7,20.8,31.7z"/>
	</g>
</g>
<g>
	<path class="st8" d="M60.3,23.4c1,0,1.9,0.2,2.9,0.6c0.9,0.4,1.7,1,2.4,1.8s1.2,1.8,1.5,2.9c0.3,1.1,0.5,2.4,0.5,3.8
		c0,1.5-0.2,2.9-0.6,4.1c-0.4,1.3-0.9,2.3-1.6,3.2c-0.7,0.9-1.5,1.5-2.5,1.9c-1,0.4-2,0.6-3.1,0.6c-1,0-2-0.2-3-0.6
		c-1-0.4-1.8-1-2.5-1.9c-0.7-0.9-1.2-1.9-1.5-3c-0.3-1.1-0.4-2.3-0.4-3.6c0-2,0.3-3.7,0.9-5.1c0.6-1.5,1.6-2.6,2.8-3.5
		C57.4,23.8,58.8,23.4,60.3,23.4z M60.1,27.4c-0.7,0-1.4,0.3-1.9,0.8s-1,1.2-1.3,2.1c-0.3,0.9-0.5,1.9-0.5,2.9
		c0,0.9,0.1,1.8,0.4,2.6c0.3,0.8,0.7,1.4,1.3,1.8s1.2,0.7,1.8,0.7c0.7,0,1.3-0.2,1.9-0.7c0.6-0.5,1-1.2,1.3-2.1
		c0.3-0.9,0.4-1.8,0.4-2.8c0-1-0.1-1.8-0.4-2.6c-0.3-0.8-0.7-1.4-1.2-1.9S60.8,27.4,60.1,27.4z"/>
	<path class="st8" d="M69.1,42l0.2-3.4l0.2-6.7l0.1-4.7c0-0.5,0-1,0-1.5c0-0.4,0-1,0-1.9c0.8,0,1.5,0,2,0c0.5,0,1.1,0,2-0.1
		c0.8,0,1.5-0.1,2.1-0.1c0.8,0,1.4,0.1,1.8,0.2c0.4,0.2,0.8,0.4,1.1,0.7c0.3,0.3,0.6,0.7,0.8,1.1c0.2,0.4,0.4,0.9,0.5,1.5
		S80,28.4,80,29c0,1.2-0.2,2.3-0.6,3.3c-0.4,1-1,1.7-1.7,2.2c-0.7,0.5-1.5,0.7-2.5,0.7c-0.3,0-0.7-0.1-1.2-0.2c0-0.4-0.1-1-0.3-1.8
		c-0.1-0.8-0.2-1.4-0.3-1.8c0.3,0.1,0.6,0.1,0.9,0.1c0.6,0,1.1-0.2,1.4-0.6c0.3-0.4,0.5-1,0.5-1.6c0-0.3,0-0.6-0.1-0.8
		c-0.1-0.2-0.2-0.4-0.3-0.6c-0.1-0.2-0.3-0.3-0.5-0.3c-0.2,0-0.4-0.1-0.6-0.1c-0.2,0-0.5,0-0.7,0l-0.8,0.1c-0.1,1.7-0.1,3.6-0.2,5.7
		c-0.1,3.8-0.1,6.1-0.1,6.9V42l-1.8,0C70.8,42,70.2,42,69.1,42z"/>
	<path class="st8" d="M84,42c0.3-4.3,0.5-9.1,0.6-14.3l-3.9,0.1l0-1.5c0-0.8,0-1.7,0.1-2.6c1.8,0,3.8,0,6.1,0l2.3,0h2.2l1.2,0
		l-0.1,1.3c0,0.7,0,1.3-0.1,1.7c0,0.5,0,0.8,0,1c-1.3-0.1-2.4-0.1-3.3-0.1h-0.6c-0.1,1.6-0.2,3-0.2,4.4c-0.1,1.9-0.1,3.8-0.2,5.6
		c0,1.8-0.1,3.3-0.1,4.4c-1,0-1.7,0-2,0C85.9,42,85.2,42,84,42z"/>
	<path class="st8" d="M93.3,42c0.4-7.2,0.5-12.7,0.5-16.6l0-1.7c1.1,0,1.8,0,2.2,0c0.2,0,0.8,0,2,0c-0.1,2-0.2,3.9-0.3,5.7
		c-0.1,2.5-0.1,4.8-0.2,7s-0.1,4-0.1,5.6l-1.9,0C95.2,42,94.5,42,93.3,42z"/>
	<path class="st8" d="M110.7,37.6c-0.1,0.5-0.2,1.3-0.3,2.2c-0.1,0.9-0.2,1.7-0.2,2.2c-1.3,0.3-2.5,0.4-3.5,0.4
		c-1,0-1.9-0.2-2.8-0.5c-0.9-0.4-1.7-1-2.4-1.8s-1.2-1.8-1.5-2.9c-0.3-1.1-0.5-2.4-0.5-3.8c0-1.6,0.2-3.1,0.6-4.4
		c0.4-1.3,1-2.4,1.8-3.2c0.8-0.9,1.6-1.5,2.6-1.8c0.9-0.4,1.9-0.6,2.9-0.6c0.9,0,2,0.2,3.4,0.5l0,1.1c0,0.5,0,1,0.1,1.6l0.1,1.5
		c-0.7-0.2-1.3-0.4-1.8-0.5c-0.4-0.1-0.9-0.1-1.2-0.1c-0.8,0-1.6,0.2-2.3,0.7c-0.7,0.5-1.2,1.2-1.6,2.1c-0.4,0.9-0.6,1.9-0.6,3.1
		c0,1,0.2,1.9,0.5,2.6c0.3,0.7,0.8,1.3,1.3,1.7c0.5,0.4,1.2,0.6,2,0.6c0.4,0,0.9-0.1,1.4-0.2C109.3,38.1,110,37.9,110.7,37.6z"/>
	<path class="st8" d="M110.9,42l0.8-1.9l4.8-13l0.5-1.5c0.1-0.4,0.4-1,0.6-1.8c1.1,0,1.9,0,2.4,0c0.9,0,1.7,0,2.4,0l1.4,5.6
		l2.8,10.7l0.5,2c-1.1,0-1.7,0-1.9,0c-0.5,0-1.3,0-2.3,0c-0.3-1.5-0.7-3.2-1.2-5.2h-4.7c-0.5,1.6-1.1,3.3-1.7,5.2
		c-1.2,0-1.9,0-2.1,0C112.7,42,111.9,42,110.9,42z M118,32.9h2.9c-0.7-3.1-1.1-4.9-1.2-5.2c-0.4,1.3-0.8,2.4-1,3.2L118,32.9z"/>
	<path class="st8" d="M128,42c0.1-2,0.2-3.7,0.3-4.9c0.1-1.8,0.1-4.2,0.2-7.1c0.1-2.2,0.1-3.8,0.1-4.8v-1.6c0.7,0,1.3,0,1.9,0
		c0.5,0,1.2,0,2-0.1c0.8,0,1.6-0.1,2.3-0.1c0.8,0,1.6,0.1,2.2,0.2c0.6,0.1,1.2,0.4,1.7,0.9c0.5,0.4,1,1,1.4,1.8
		c0.4,0.7,0.6,1.6,0.8,2.5c0.2,1,0.3,2,0.3,3c0,1-0.1,2-0.2,2.9c-0.1,0.9-0.4,1.8-0.6,2.5c-0.3,0.8-0.6,1.4-0.9,1.9
		c-0.4,0.5-0.8,1-1.2,1.4c-0.3,0.3-0.7,0.5-1,0.7c-0.3,0.2-0.8,0.3-1.4,0.4c-0.7,0.1-1.4,0.2-2.3,0.2l-3.7,0
		C129.4,42,128.8,42,128,42z M132,38c0.3,0,0.7,0.1,1.1,0.1c0.6,0,1.2-0.1,1.7-0.2c0.5-0.2,0.9-0.5,1.3-1c0.4-0.5,0.7-1.2,0.8-2
		c0.2-0.8,0.3-1.7,0.3-2.5c0-1.1-0.1-2-0.4-2.7c-0.3-0.7-0.6-1.2-1.1-1.5c-0.4-0.3-1-0.4-1.8-0.4c-0.4,0-1,0-1.6,0.1L132,38z"/>
</g>
</svg>
